HIERARCHY
ROOT Hips
{
	OFFSET	0.00	0.00	0.00
	CHANNELS 6 Xposition Yposition Zposition Zrotation Xrotation Yrotation
	JOINT LeftUpLeg
	{
		OFFSET	 0.126116	-0.014019	-0.065224
		CHANNELS 3 Zrotation Xrotation Yrotation
		JOINT LeftLeg
		{
			OFFSET	 0.000000	 0.000000	 0.569914
			CHANNELS 3 Zrotation Xrotation Yrotation
			JOINT LeftFoot
			{
				OFFSET	 0.000000	 0.000000	 0.544423
				CHANNELS 3 Zrotation Xrotation Yrotation
				JOINT LeftToeBase
				{
					OFFSET	 0.000000	 0.000000	 0.207117
					CHANNELS 3 Zrotation Xrotation Yrotation
					End Site
					{
						OFFSET	 0.000000	 0.000000	 0.207117
					}
				}
			}
		}
	}
	JOINT RightUpLeg
	{
		OFFSET	-0.124023	-0.008373	-0.065224
		CHANNELS 3 Zrotation Xrotation Yrotation
		JOINT RightLeg
		{
			OFFSET	 0.000000	 0.000000	 0.570047
			CHANNELS 3 Zrotation Xrotation Yrotation
			JOINT RightFoot
			{
				OFFSET	 0.000000	 0.000000	 0.544354
				CHANNELS 3 Zrotation Xrotation Yrotation
				JOINT RightToeBase
				{
					OFFSET	 0.000000	 0.000000	 0.207540
					CHANNELS 3 Zrotation Xrotation Yrotation
					End Site
					{
						OFFSET	 0.000000	 0.000000	 0.207540
					}
				}
			}
		}
	}
	JOINT Spine
	{
		OFFSET	 0.000184	-0.007763	 0.117403
		CHANNELS 3 Zrotation Xrotation Yrotation
		JOINT Spine1
		{
			OFFSET	 0.000000	 0.000000	 0.137269
			CHANNELS 3 Zrotation Xrotation Yrotation
			JOINT Spine2
			{
				OFFSET	 0.000000	 0.000000	 0.156879
				CHANNELS 3 Zrotation Xrotation Yrotation
				JOINT LeftShoulder
				{
					OFFSET	 0.080501	-0.002496	 0.160144
					CHANNELS 3 Zrotation Xrotation Yrotation
					JOINT LeftArm
					{
						OFFSET	 0.000000	 0.000000	 0.164363
						CHANNELS 3 Zrotation Xrotation Yrotation
						JOINT LeftForeArm
						{
							OFFSET	 0.000000	 0.000000	 0.364576
							CHANNELS 3 Zrotation Xrotation Yrotation
							JOINT LeftHand
							{
								OFFSET	 0.000000	 0.000000	 0.360812
								CHANNELS 3 Zrotation Xrotation Yrotation
								JOINT LeftHandIndex1
								{
									OFFSET	 0.000000	 0.000000	 0.086006
									CHANNELS 3 Zrotation Xrotation Yrotation
									JOINT LeftHandIndex2
									{
										OFFSET	 0.000000	 0.000000	 0.047236
										CHANNELS 3 Zrotation Xrotation Yrotation
										JOINT LeftHandIndex3
										{
											OFFSET	-0.004284	-0.000551	 0.038166
											CHANNELS 3 Zrotation Xrotation Yrotation
											End Site
											{
												OFFSET	-0.004284	-0.000551	 0.038166
											}
										}
									}
								}
							}
						}
					}
				}
				JOINT Neck
				{
					OFFSET	 0.000000	 0.000000	 0.176489
					CHANNELS 3 Zrotation Xrotation Yrotation
					JOINT Head
					{
						OFFSET	 0.000000	-0.001747	 0.077940
						CHANNELS 3 Zrotation Xrotation Yrotation
						End Site
						{
							OFFSET	 0.000000	-0.001747	 0.077940
						}
					}
				}
				JOINT RightShoulder
				{
					OFFSET	-0.080363	 0.000306	 0.159706
					CHANNELS 3 Zrotation Xrotation Yrotation
					JOINT RightArm
					{
						OFFSET	 0.000000	 0.000000	 0.164196
						CHANNELS 3 Zrotation Xrotation Yrotation
						JOINT RightForeArm
						{
							OFFSET	 0.000000	 0.000000	 0.365611
							CHANNELS 3 Zrotation Xrotation Yrotation
							JOINT RightHand
							{
								OFFSET	 0.000000	 0.000000	 0.360648
								CHANNELS 3 Zrotation Xrotation Yrotation
								JOINT RightHandIndex1
								{
									OFFSET	 0.000000	 0.000000	 0.069977
									CHANNELS 3 Zrotation Xrotation Yrotation
									JOINT RightHandIndex2
									{
										OFFSET	 0.000000	 0.000000	 0.052305
										CHANNELS 3 Zrotation Xrotation Yrotation
										JOINT RightHandIndex3
										{
											OFFSET	 0.009002	-0.000782	 0.042196
											CHANNELS 3 Zrotation Xrotation Yrotation
											End Site
											{
												OFFSET	 0.009002	-0.000782	 0.042196
											}
										}
									}
								}
							}
						}
					}
				}
			}
		}
	}
}
MOTION
Frames:    6
Frame Time: 0.03333334
-0.059123	-2.263282	 1.199756	 4.783576	-1.498823	-3.585240	 23.101880	-8.918985	-176.195200	 0.768789	-38.990330	 0.261790	 71.948430	 83.063190	-75.763150	-2.370165	 31.487090	-0.067031	-28.922280	-32.524910	-176.920600	 10.234080	-50.084200	 8.473396	-0.550767	 74.161940	 7.737097	 2.358545	 33.062890	 0.104682	 13.236400	 8.788926	 0.965340	 1.344965	 3.238107	 2.833630	-7.929438	-2.856928	-3.663853	-93.892490	 58.964290	 175.486200	 10.021550	 26.764790	-42.640240	 13.869690	-2.469921	-9.034296	-13.173740	-4.593472	-8.358029	-4.869163	 19.246270	-2.786502	-3.885814	 21.417900	 2.207110	-4.808259	 5.545467	 0.146969	-0.089137	-5.059333	 0.177386	-9.874228	 1.793412	 2.141890	 89.793400	 61.631160	-179.973200	-19.056360	 50.168450	 10.969450	-16.340780	-4.940976	 14.054750	 9.334693	 7.993126	-1.375846	 6.296457	 25.146050	-0.549794	 1.847905	 45.002840	-6.959574	 0.488998	 24.439450	 3.587203
-0.062118	-2.330124	 1.195693	 6.069221	-0.474887	-3.647844	 21.350700	-6.510245	-177.372600	 1.355084	-37.803410	 0.614443	 83.743510	 84.769910	-87.637410	-2.367912	 31.859550	-0.075474	-33.230750	-35.471070	 178.804600	 10.176630	-40.189350	 7.106516	-12.710780	 77.700920	 18.886790	 2.359085	 32.982810	 0.102826	 6.178432	 8.125927	 0.781577	 1.172315	 3.324768	 3.014722	-8.170416	-3.147604	-3.729314	-94.193320	 59.019920	 174.837000	 7.828155	 23.107150	-43.310010	 16.344980	-3.579095	-10.732490	-11.097340	-5.194201	-9.777891	-4.861429	 19.454620	-2.802379	-3.869657	 21.624270	 2.190695	-4.802435	 5.614112	 0.142955	-0.021756	-5.117951	 0.256226	-9.868230	 1.746709	 1.907906	 89.682640	 61.766500	 179.761800	-18.851950	 52.521960	 6.494753	-19.821790	-8.163985	 18.736660	 7.841648	 8.545678	-1.765644	 6.268280	 22.988270	-0.559909	 2.104488	 42.867020	-7.187298	 0.916978	 22.535950	 3.375098
-0.066362	-2.415050	 1.185576	 6.575112	 0.525219	-4.215608	 20.257040	-2.483200	-178.610100	 1.618941	-35.598770	 0.737150	 117.266600	 86.527790	-120.927500	-2.361460	 32.867640	-0.098592	-34.016530	-37.647650	 175.274200	 9.840871	-28.076850	 5.033082	-20.507440	 79.306850	 24.760570	 2.356423	 33.370130	 0.111851	-2.041487	 7.168737	 1.112214	 1.017923	 4.087754	 3.051747	-8.324027	-3.584792	-3.772754	-94.442180	 58.897080	 174.325800	 5.115009	 19.734620	-44.128700	 18.572650	-5.053325	-12.525890	-9.990642	-7.044361	-9.078632	-4.833403	 20.066600	-2.821841	-3.834058	 22.075370	 2.154527	-4.778061	 5.900767	 0.126099	 0.012269	-5.242268	 0.333801	-9.914351	 1.667579	 1.827624	 89.486400	 61.992340	 179.286100	-17.723730	 54.645510	 2.759653	-25.046050	-10.845730	 20.741250	 5.554692	 8.576766	-3.370137	 6.211818	 19.849460	-0.675986	 2.429886	 39.889780	-7.471685	 1.601719	 19.360790	 3.060997
-0.072361	-2.491471	 1.171163	 6.902582	 0.717355	-4.614645	 19.264840	 2.098659	 179.819500	 1.854839	-33.203880	 0.822728	 153.281900	 87.740940	-156.678100	-2.341177	 35.585250	-0.163030	-33.148590	-42.485560	 173.130000	 10.408080	-25.588170	 4.872805	-31.443850	 83.467000	 34.162600	 2.337290	 35.846790	 0.171084	-9.868385	 7.021520	 1.366877	 0.890799	 4.556611	 3.095502	-8.348497	-3.927781	-3.808225	-94.538820	 58.894030	 174.120800	 2.904511	 18.258820	-44.816670	 21.042920	-6.447066	-13.896290	-9.128350	-9.050698	-9.246522	-4.840420	 20.466160	-2.980997	-3.794317	 22.572530	 2.114163	-4.739636	 6.350177	 0.099400	 0.092236	-5.378453	 0.354137	-9.816758	 1.665665	 1.533296	 89.368550	 61.985850	 179.001700	-15.818740	 55.783720	-0.821578	-29.610840	-12.741520	 21.456340	 3.826221	 7.460583	-4.910230	 6.167190	 16.765100	-0.701955	 2.817928	 35.891690	-7.803077	 2.245186	 16.237440	 2.796232
-0.081248	-2.576090	 1.157577	 7.261144	 0.551515	-4.200259	 18.246390	 7.742396	 177.265500	 2.227216	-28.687880	 0.900077	-33.009710	 87.469980	 30.182420	-2.267066	 42.505290	-0.344957	-32.236790	-44.802970	 171.568900	 9.642693	-25.844060	 4.574591	-24.194110	 78.101700	 28.615410	 2.339092	 35.631780	 0.165837	-17.860220	 7.029037	 1.041031	 0.710657	 4.488735	 2.908429	-8.339212	-3.893385	-3.771168	-94.508000	 59.232510	 174.130300	 1.360094	 17.928070	-44.797810	 23.351890	-7.788061	-15.007660	-8.535396	-11.832620	-10.172630	-4.880126	 20.621420	-3.258638	-3.762925	 22.960690	 2.082291	-4.680063	 7.041265	 0.057703	 0.194393	-5.480540	 0.272271	-9.586500	 1.780623	 1.368521	 89.355600	 61.619630	 178.984300	-14.077610	 56.122130	-3.819227	-33.521000	-14.135190	 21.657310	 1.989009	 5.530928	-5.857921	 6.201540	 13.701970	-0.350961	 3.038504	 33.373910	-7.986954	 2.832214	 13.278080	 2.582278
-0.092854	-2.684515	 1.147036	 8.289053	-0.405376	-2.787855	 18.213140	 14.067660	 172.304300	 0.254471	-25.512660	-0.042320	-20.720390	 76.553120	 22.321040	-2.005107	 55.052640	-0.788944	-28.529540	-41.298730	 172.524600	 6.528045	-27.691610	 3.400250	-24.507420	 66.893710	 36.115450	 2.335679	 36.035370	 0.175717	-27.126560	 7.257915	-0.282416	 0.041577	 4.149138	 2.597431	-8.409187	-3.448333	-3.816712	-94.406880	 59.141030	 174.362200	 1.021174	 17.421420	-43.697890	 25.085170	-9.158921	-15.986050	-7.324502	-13.445700	-9.762811	-4.895861	 20.871370	-3.432980	-3.738858	 23.255620	 2.057856	-4.585998	 8.118550	-0.008882	 0.343229	-5.428938	 0.275347	-9.340307	 2.101932	 1.836126	 89.250600	 61.411160	 178.743700	-12.698650	 55.834630	-3.840636	-37.507610	-12.503960	 18.987590	-0.696208	 3.031175	-5.401515	 6.324741	 10.376670	 0.299904	 3.266555	 30.563560	-8.172999	 3.362622	 10.522720	 2.412972
